<svg width="838" height="400" xmlns="http://www.w3.org/2000/svg" xmlns:xlink="http://www.w3.org/1999/xlink">
  <defs>
    <path id="a" d="M13.703555 149.959581l679.404784 59.440217-12.811894 146.440621L.89166086 296.400202z"/>
    <path id="c" d="M30.703555.55958141L710.108339 59.999798l-12.811894 147.440621-679.4047841-61.440217z"/>
  </defs>
  <g transform="translate(61 32.800419)" fill="none" fill-rule="evenodd">
    <mask id="b" fill="#fff">
      <use xlink:href="#a"/>
    </mask>
    <path d="M154.082934 225.199581c11.545847-.02494 19.205702-.704403 22.979566-2.039062 3.84375-1.359375 6.644531-3.890625 8.402344-7.59375 1.757812-3.703125 2.636718-9.398438 2.636718-17.085938v-10.546875c0-7.40625-1.21875-12.902343-3.65625-16.488281-2.4375-3.585937-7.078124-6.152344-13.921874-7.699219 6.140624-1.40625 10.253906-3.421875 12.339843-6.046875 2.085938-2.625 3.128907-7.265625 3.128907-13.921875 0-9.84375-1.476563-16.980468-4.429688-21.410156-2.953125-4.429687-6.832031-7.371094-11.636719-8.824219-4.804687-1.453125-11.871093-2.179687-21.199219-2.179687h-29.53125v113.835937h34.887622zm-5.286059-69.046875v-25.3125c3.046875.046875 5.097656.257813 6.152344.632813 1.054687.375 1.910156 1.277344 2.566406 2.707031.65625 1.429688.984375 3.925781.984375 7.488281 0 6.75-.398438 10.839844-1.195312 12.269532-.796876 1.429687-2.648438 2.144531-5.554688 2.144531-.703125 0-1.6875.023437-2.953125.070312zm0 49.570313v-31.851563c4.40625.140625 7.125.726563 8.15625 1.757813S158.5 179.613644 158.5 184.488644v10.617187c0 4.59375-.574219 7.476563-1.722656 8.648438-1.148438 1.171875-3.808594 1.828125-7.980469 1.96875zm105.25 19.476562v-22.78125h-21.726563v-25.03125H250.8125v-21.65625h-18.492188v-21.585937h19.757813v-22.78125H202.71875v113.835937h51.328125zm40.414063 0l1.757812-20.460937h10.617188l1.476562 20.460937h30.304688l-16.945313-113.835937h-42.820313l-15.046874 113.835937h30.65625zm11.53125-40.640625h-10.125c.75-10.078125 2.625-25.992187 5.625-47.742187 1.5 18.9375 3 34.851562 4.5 47.742187zm75.789062 40.640625v-91.054687h17.578125v-22.78125h-64.6875v22.78125h17.507813v91.054687h29.601562zm55.929688 0v-51.328125c4.078124 0 6.597656.726563 7.558593 2.179688.960938 1.453125 1.441407 5.226562 1.441407 11.320312v37.828125h27.492187v-30.023437c0-9.1875-.246094-14.800781-.738281-16.839844-.492188-2.039062-1.746094-4.277344-3.761719-6.714844s-5.953125-4.382812-11.8125-5.835937c6.46875-.609375 10.804687-2.4375 13.007813-5.484375 2.203124-3.046875 3.304687-9 3.304687-17.859375 0-9.703125-1.558594-16.769531-4.675781-21.199219-3.117188-4.429687-7.148438-7.183594-12.09375-8.261719-4.945313-1.078125-14.402344-1.617187-28.371094-1.617187h-20.953125v113.835937h29.601563zm0-69.046875v-25.3125c3.421874 0 5.777343.5625 7.066406 1.6875 1.289062 1.125 1.933594 3.492188 1.933594 7.101563v6.257812c0 5.015625-.667969 7.980469-2.003907 8.894532-1.335937.914062-3.667969 1.371093-6.996093 1.371093zm81.554687 69.046875V111.363644h-29.601563v113.835937h29.601563zm38.804687 0l2.8125-18.5625c1.3125-8.0625 2.34375-15.679687 3.09375-22.851562 2.71875 16.265625 5.71875 30.070312 9 41.414062h27.421876l-15.609376-63.492187 10.335938-50.34375h-24.820312l-6.328126 31.007812c-.796874-4.640625-1.804687-9.75-3.023437-15.328125-1.546875-7.3125-2.578125-12.539062-3.09375-15.679687h-28.617187l10.6875 50.34375-10.6875 63.492187h28.828124z" fill="#000" fill-rule="nonzero" mask="url(#b)"/>
    <mask id="d" fill="#fff">
      <use xlink:href="#c"/>
    </mask>
    <path d="M158.082934 222.199581c11.545847-.02494 19.205702-.704403 22.979566-2.039062 3.84375-1.359375 6.644531-3.890625 8.402344-7.59375 1.757812-3.703125 2.636718-9.398438 2.636718-17.085938v-10.546875c0-7.40625-1.21875-12.902343-3.65625-16.488281-2.4375-3.585937-7.078124-6.152344-13.921874-7.699219 6.140624-1.40625 10.253906-3.421875 12.339843-6.046875 2.085938-2.625 3.128907-7.265625 3.128907-13.921875 0-9.84375-1.476563-16.980468-4.429688-21.410156-2.953125-4.429687-6.832031-7.371094-11.636719-8.824219-4.804687-1.453125-11.871093-2.179687-21.199219-2.179687h-29.53125v113.835937h34.887622zm-5.286059-69.046875v-25.3125c3.046875.046875 5.097656.257813 6.152344.632813 1.054687.375 1.910156 1.277344 2.566406 2.707031.65625 1.429688.984375 3.925781.984375 7.488281 0 6.75-.398438 10.839844-1.195312 12.269532-.796876 1.429687-2.648438 2.144531-5.554688 2.144531-.703125 0-1.6875.023437-2.953125.070312zm0 49.570313v-31.851563c4.40625.140625 7.125.726563 8.15625 1.757813S162.5 176.613644 162.5 181.488644v10.617187c0 4.59375-.574219 7.476563-1.722656 8.648438-1.148438 1.171875-3.808594 1.828125-7.980469 1.96875zm105.25 19.476562v-22.78125h-21.726563v-25.03125H254.8125v-21.65625h-18.492188v-21.585937h19.757813v-22.78125H206.71875v113.835937h51.328125zm40.414063 0l1.757812-20.460937h10.617188l1.476562 20.460937h30.304688l-16.945313-113.835937h-42.820313l-15.046874 113.835937h30.65625zm11.53125-40.640625h-10.125c.75-10.078125 2.625-25.992187 5.625-47.742187 1.5 18.9375 3 34.851562 4.5 47.742187zm75.789062 40.640625v-91.054687h17.578125v-22.78125h-64.6875v22.78125h17.507813v91.054687h29.601562zm55.929688 0v-51.328125c4.078124 0 6.597656.726563 7.558593 2.179688.960938 1.453125 1.441407 5.226562 1.441407 11.320312v37.828125h27.492187v-30.023437c0-9.1875-.246094-14.800781-.738281-16.839844-.492188-2.039062-1.746094-4.277344-3.761719-6.714844s-5.953125-4.382812-11.8125-5.835937c6.46875-.609375 10.804687-2.4375 13.007813-5.484375 2.203124-3.046875 3.304687-9 3.304687-17.859375 0-9.703125-1.558594-16.769531-4.675781-21.199219-3.117188-4.429687-7.148438-7.183594-12.09375-8.261719-4.945313-1.078125-14.402344-1.617187-28.371094-1.617187h-20.953125v113.835937h29.601563zm0-69.046875v-25.3125c3.421874 0 5.777343.5625 7.066406 1.6875 1.289062 1.125 1.933594 3.492188 1.933594 7.101563v6.257812c0 5.015625-.667969 7.980469-2.003907 8.894532-1.335937.914062-3.667969 1.371093-6.996093 1.371093zm81.554687 69.046875V108.363644h-29.601563v113.835937h29.601563zm38.804687 0l2.8125-18.5625c1.3125-8.0625 2.34375-15.679687 3.09375-22.851562 2.71875 16.265625 5.71875 30.070312 9 41.414062h27.421876l-15.609376-63.492187 10.335938-50.34375h-24.820312l-6.328126 31.007812c-.796874-4.640625-1.804687-9.75-3.023437-15.328125-1.546875-7.3125-2.578125-12.539062-3.09375-15.679687h-28.617187l10.6875 50.34375-10.6875 63.492187h28.828124z" fill="#000" fill-rule="nonzero" mask="url(#d)"/>
  </g>
</svg>
