<svg width="838" height="400" xmlns="http://www.w3.org/2000/svg">
  <style>
    @media (prefers-color-scheme: dark) {
      .group {
        opacity: .25;
      }
    }
  </style>
  
  <g class="group" fill="none" fill-rule="nonzero">
    <path d="M134.27501604 343.24479639c.02587825.0388643.54461304.97000049 1.61185067 2.24188476 2.35985522 2.81236594 7.64605187 7.6117406 16.54283447 8.17661564 12.89376312.81885957 46.22678534 1.10614489 73.43360822.20672103 28.51547364-.92054338 71.60427987-2.31039193 105.16241474-4.46690558 9.1221497-.58677379 16.00710141-.99927551 21.91302257-1.35088297 15.88907658-.9473583 24.6350919-1.46083671 50.53222025-3.87295032 41.10984513-3.82852211 92.06619479-9.65935247 92.57246843-9.7139582 8.98470236-1.02338887 21.8360321-2.68634138 28.37156704-3.53933351.0706334.19651175.12546316.40628561.25141032.5563836.68608129.81763983 1.80021349.67703784 3.34337823.48606305 1.46069893-.16889513 10.87210873-1.55033405 14.87295909-2.1342467.17726088.9013066.32072082 1.56173266.38549323 1.7833557l.26771982.49558093c.31486823.37524534.81848452.51807085 1.36861371.5478247.22679668 1.71458708.37310666 2.8437967.40027852 3.076777.13175858.9192942.55021526 3.49618025.9776824 4.38274032.5072765 1.0619096 1.67002401 1.45265496 3.25612369 1.06410802.63869824-.14552982 2.59634462-.59679064 2.57396924-2.59733564.0172582-.78182194-.66325002-4.54561499-1.11801258-6.91702866.6251573-.45052786 1.29939396-.83454079 2.37274333-.92746056 1.22592262-.07959051 2.05670373-.2449449 2.78590132-.37890863l.6882836-.12655685c1.26771604-.22235676 1.87794774-.794982 2.16123718-1.39616766 2.89452992-.07292523 6.62273991-.63672959 11.63651174-1.41767176 2.2042963-.34186574 4.65344314-.72090802 7.3785439-1.11610964 21.08014664-3.04154556 115.4949969-18.78433441 116.58388756-18.97106695 2.92798511-.74718191 6.16584533-2.64960995 5.63926605-5.58002134-.30300684-1.59678981-.87046276-6.734346-.87671776-6.83006284-.01696637-.1405783-.47411555-3.4456087-2.57544674-5.9498777-1.2462154-1.48518169-2.80223524-2.40077704-4.62637717-2.72118426-.9117518-.16383545-3.3384165-.58446118-123.16808662 20.08701861l-5.38505428.924209c-.9067503.1550574-1.8777473.2495974-2.8566467.35076699-1.51754823.14928664-3.10698336.32523754-4.62514881.6904356-.08643689-.18325104-.17809912-.34865613-.2775313-.46715478l-.11664015-.13098346c-1.04579494-.97351659-1.77843856-.88377866-3.10440916-.70677526l-.73264285.08973728c-.42571832.05432252-.88903643.12000166-1.3675224.19167616-.9160559.135943-2.55417637.3662071-3.0240131.25561721-.37244837-2.6424156-.9845569-6.89438982-1.16473798-7.67881799-.06898652-.29886036-.2065443-.56710663-.40209379-.80015343-.89820312-1.0704368-2.79113888-1.0234896-3.56263437-.69921893-1.21058253.53116298-1.81234623 1.67555383-1.6110753 3.05481264l.86113593 6.50658527c-.9600233.2199521-1.24179627.67851319-1.3467854 1.08296976-.02917297.16583114-.02147242.70458602.01109637 1.37728744-4.97693949.73657481-16.11084541 2.3921547-16.97564988 2.65336748-.48357887.1297973-.92865716.32152353-1.21859626.70616344-7.76093109 1.09368764-39.04964135 5.46533907-52.64017298 6.62446808-7.86268824.66751033-20.41909733 2.056071-32.55437639 3.40088987-12.1201112 1.3388235-23.56429781 2.60857798-29.09432839 3.01498408-2.21807886.1649612-6.1742156.48922917-11.38788284.91961112-20.1615342 1.66494305-62.10782022 5.1385456-92.12157263 6.44798551-7.85188753.33535524-19.48402515.86758798-33.03866616 1.49177017-48.55735737 2.22257428-129.82121235 5.94763374-134.75204636 5.03006427l-.57282514-.10494574-2.25694011 1.6110934.59841198 1.06621123zm559.88432104-51.00048147c.10940824.13038766.20840971.2564379.29227999.38864853.38375048.5863693 1.0828553 2.3066286 1.40218006 7.22752457l.04847458.84809458c.08407636 1.30181449.09153897 1.4719993-.32788156 2.18989932-.35533775.62491635-2.91013714 1.78185235-5.10158818 2.06535363-.54327673-1.82487513-1.4749596-8.25781102-2.16708226-14.17944152l.5311572-.09280044c2.35220926-.36611187 4.14471193.14913563 5.32246017 1.55272133zm-122.4621814 26.39892117c-.68825841-.82023443-1.46060113-1.53843253-2.29842653-2.13242577.11621977-.67047106.62316289-2.32989795 1.47095446-3.61423194.88158175.8406055 2.60390074 2.37979648 3.38536337 3.0777488-.49100625.55051993-1.2736763 1.64798969-1.90720571 3.51437338-.17233482-.25205236-.39026341-.5351054-.6506856-.84546447zm15.08178059-4.22240214c.10746505-.712019.60120629-2.40273652 1.43599407-3.67923196.94465786.91577667 2.8378464 2.61970896 3.59616834 3.30564052-.37367225.66701729-1.11965763 2.15046537-1.73567817 4.2710739-.6799524-1.18370943-1.9765963-2.92345493-3.29648424-3.89748246zm-9.04783279.36975506c.10746505-.712019.60120694-2.40273575 1.43599472-3.6792312.94465721.91577591 2.83784576 2.6197082 3.5961677 3.30563976-.37367161.66701806-1.119657 2.15046614-1.73567754 4.27107466-.67995303-1.1837102-1.97659693-2.92345569-3.29648488-3.89748322zm17.16680901-1.81197076c.10802408-.68801692.57817369-2.37573537 1.4542795-3.68855472.93881601.9321505 2.82253852 2.64035884 3.57626645 3.32081548-.36610871.66825254-1.10381835 2.15378464-1.74258784 4.2783965-.65801514-1.18090148-1.96248997-2.9222009-3.2879581-3.91065726zm8.12255205-1.43795419c.10422165-.67699125.58662699-2.36566112 1.43451646-3.6732143.94526015.91649446 2.83578127 2.62502646 3.59456987 3.31151416-.36971668.66395274-1.10834422 2.14839093-1.73407971 4.26520026-.6735163-1.18381782-1.96732823-2.92796692-3.29500662-3.90350012zm11.29968142 1.82383908c-.7089568-.84490183-1.45448114-1.53113903-2.23162966-2.03726314.0724398-.70708875.49470006-2.4052078 1.28024047-3.71705811.97559843.85152816 2.92326948 2.41036746 3.70598292 3.03980287-.34019518.67579923-1.02539688 2.18501476-1.58120742 4.31514982-.29544992-.4687828-.6912956-1.02609811-1.1733863-1.60063144zm7.1225844-1.52613209c-.7058065-.84114744-1.46214222-1.52471192-2.23546052-2.03404996.07287364-.67545725.48815273-2.37411751 1.27820264-3.69615085.96929654.84401786 2.91696759 2.40285716 3.69653009 3.02853742-.3370436.67955515-1.02224594 2.1887699-1.56409415 4.3199874-.30558203-.47307916-.69308734-1.04379068-1.17517805-1.61832401zm9.14403237-1.33191712c-.7152587-.85241212-1.48104725-1.54724205-2.26449766-2.06087645.07942097-.70654755.49717108-2.39448433 1.29037194-3.71276252.9731274.84080469 2.90998706 2.40231671 3.6927005 3.03175212-.34087445.68276832-1.02224594 2.18876991-1.56409478 4.31998663-.29995878-.458599-.68184213-1.0148319-1.15448-1.57809978zm7.9818151-1.56678487c-.75899526-.90453532-1.55290864-1.64844035-2.36131815-2.20737709.16179989-.64726527.8471381-2.21076844 1.76862209-3.64063781.92112446.87217343 2.6178749 2.4275647 3.32244174 3.08054792-.31712262.6877388-.96969548 2.2513971-1.45812136 4.49295256-.3305532-.51061724-.7542825-1.1089416-1.27162433-1.72548558zm8.13475697-1.44674634c-.7567365-.90184344-1.552123-1.63972544-2.36869512-2.20061139.16141872-.64771953.84176792-2.20161114 1.76318297-3.63934128.91469174.88006445 2.61025559 2.43404161 3.31234256 3.08406942-.31297807.68489947-.96096287 2.246247-1.44036173 4.48300319-.3311407-.51131741-.751752-1.11370449-1.26646868-1.72711994zm8.12809605-1.40023263c-.76638217-.9133387-1.56422684-1.66192886-2.38714649-2.2303795.16501576-.64343274.84956157-2.20010165 1.76015752-3.63516825.92514445.87696427 2.62385316 2.4191321 3.33995068 3.07029978-.32462622.6943536-.97682049 2.2584631-1.4603094 4.49034495-.32020383-.50606196-.74513742-1.0902643-1.2526523-1.69509698zm9.0912105-1.40264638c-.7533278-.89778111-1.54105385-1.642091-2.3537951-2.2061901.16183958-.65499658.86601316-2.24272436 1.75893058-3.62885185.91810044.88412679 2.6140858 2.43082768 3.3234117 3.08170388-.32063851.69132734-.97203201 2.24861254-1.4552611 4.48858266-.32390177-.510469-.751752-1.11370448-1.27328608-1.7352446zm8.12211342-1.43458762c-.7589946-.90453456-1.54610087-1.64032718-2.35451038-2.19926392.16179989-.64726527.84288122-2.20028435 1.76138767-3.64148084.92069844.87944434 2.61404531 2.43077941 3.32244238 3.08054868-.32095348.69095198-.97352635 2.25461028-1.458122 4.4929518-.33055255-.51061648-.7538552-1.11621098-1.27119767-1.73275572zm8.22645359-2.41427172c-.76696261-.91403044-1.56916652-1.66003712-2.39255604-2.22904773.16482741-.6436572.84517661-2.1975488 1.7704219-3.63849288.91427021.88734072 2.60983406 2.44131788 3.31532973 3.09540803-.31638677.68083712-.96054134 2.23897071-1.44334891 4.47166457-.32049308-.50640668-.74194677-1.09424044-1.24984668-1.699532zm-116.2329881 20.24368262c-.42136977-1.910099-.87148184-4.25893993-1.28281633-6.75603302 1.03751372.9953235 2.37819983 2.2352745 3.06510658 2.85943262-.45976984.59552466-1.22295 1.87957255-1.78229025 3.8966004zm-13.8870061-11.58820696c.45212696-.06553745.88974197-.13225226 1.3042287-.18623859l.76231241-.09877883c1.0553777-.14436461 1.10356163-.15140733 1.39573815.12427192.3932164.71841963.80984127 4.4220725 1.03522487 6.42317338.15074593 1.31584844.28606455 2.4843823.40434915 3.13301063 0 0 1.1836957 7.60737986 1.3452079 8.84742013.04786266.34713321.06725795.49111958-.69845355.62613767l-.72546444.1346339c-.6700253.1281805-1.42984069.27828396-2.5675307.36484427-1.11660247.0955757-1.9442043.4227541-2.61625564.80637973l-2.67523173-19.84438282c.0006796-.00724873-.00385677-.03682936-.00714462-.04074767.87149637.02328445 1.90442744-.11559952 3.0430195-.28972372zm-26.70978618 5.8269865l.25142681-.07165648c.71126987-.18551333 10.3463452-1.72245815 17.05178986-2.77147398l2.0627461 15.29221635c-3.35669694.52784302-14.07348482 2.1962638-15.59560321 2.39211646-.4621285.06270194-1.1714375.15369278-1.52837884.14803316l-.20834651-1.22496868c-.2808634-1.60196904-.8019219-4.58793817-.8404081-5.12617527-.0635819-.91522542-.97709899-7.00833865-1.19497259-8.28501986-.026023-.14401611-.04507795-.24744055-.0477989-.33140043.01192347-.01000499.03038025-.0122239.04954538-.02167128zM271.10872771 338.545216c13.55001993-.6401625 25.18553813-1.1922779 33.02973773-1.53945399 30.07093081-1.35449026 72.05040918-4.8876711 92.22655228-6.57961053 5.20311596-.44225172 9.15530991-.76874492 11.36215191-.93412918 5.58211892-.42434206 17.05257004-1.71137164 29.19896676-3.0684082 12.12065173-1.35558943 24.65583078-2.76338997 32.48161156-3.43776066 13.42760435-1.1555579 43.936223-5.45054768 52.30640403-6.64890982.35381171 2.14869807 1.05985941 6.66913199 1.10460788 7.31688454.0412204.52305716.35805886 2.3063808.7328692 4.3837114-6.6026837.87085974-19.25098192 2.5213885-28.10279562 3.53936752-.51025041.05862668-51.44341572 5.9583713-92.52500063 9.84670414-25.85340174 2.4447006-34.5846219 2.97180988-50.44022188 3.94083096-5.91301175.35934297-12.80502747.78096382-21.93028042 1.376678-33.5098389 2.20433326-76.57323005 3.6505147-105.072208 4.61315196-27.12838181.94130139-60.33299322.7059623-73.16200782-.09198144-8.11642653-.49938042-12.82861145-4.95039492-14.7846706-7.39399389 11.6173446.34999254 69.73107427-2.30996852 133.57428362-5.32308081z" fill="#CCC" opacity=".2"/>
    <path d="M516.5 198.6c-3.466667 3.4666667-5.2 7.6333333-5.2 12.5 0 4.9 1.733333 9.0833333 5.2 12.55 3.466667 3.4666667 7.65 5.2 12.55 5.2 4.866667 0 9.033333-1.7333333 12.5-5.2 3.466667-3.4666667 5.2-7.65 5.2-12.55 0-4.8333333-1.733333-9-5.2-12.5s-7.633333-5.25-12.5-5.25c-4.9 0-9.083333 1.75-12.55 5.25m6.25 6.25c1.733333-1.7333333 3.833333-2.6 6.3-2.6 2.433333 0 4.516667.8666667 6.25 2.6 1.733333 1.7666667 2.6 3.85 2.6 6.25 0 2.4333333-.866667 4.5333333-2.6 6.3-1.733333 1.7333333-3.816667 2.6-6.25 2.6-2.466667 0-4.566667-.8666667-6.3-2.6-1.733333-1.7666667-2.6-3.8666667-2.6-6.3 0-2.4333333.866667-4.5166667 2.6-6.25m-106.8-11.5c-1.233333 0-2.283333.4333333-3.15 1.3-.866667.8666667-1.3 1.9166667-1.3 3.15v15.55c0 4.2666667 1.516667 7.9166667 4.55 10.95 3 3.0333333 6.65 4.55 10.95 4.55 4.3 0 7.966667-1.5166667 11-4.55s4.55-6.6833333 4.55-10.95V197.8c0-1.2-.45-2.25-1.35-3.15-.866667-.8666667-1.9-1.3-3.1-1.3-1.2 0-2.25.4333333-3.15 1.3-.866667.9-1.3 1.95-1.3 3.15v15.55c0 1.8333333-.633333 3.4-1.9 4.7-1.3 1.3-2.883333 1.95-4.75 1.95-1.833333 0-3.383333-.65-4.65-1.95-1.333333-1.3-2-2.8666667-2-4.7V197.8c0-1.2-.416667-2.25-1.25-3.15-.866667-.8666667-1.916667-1.3-3.15-1.3m-31.05 0c-1.233333 0-2.283333.4333333-3.15 1.3-.866667.8666667-1.3 1.9166667-1.3 3.15v26.6c0 1.2333333.433333 2.2833333 1.3 3.15.866667.8666667 1.916667 1.3 3.15 1.3s2.283333-.4333333 3.15-1.3c.833333-.8666667 1.25-1.9166667 1.25-3.15v-8.85h11.55c1.233333 0 2.283333-.4333333 3.15-1.3.866667-.8666667 1.3-1.9166667 1.3-3.15 0-1.2-.433333-2.25-1.3-3.15-.866667-.8333333-1.916667-1.25-3.15-1.25H389.3v-4.45h13.75c1.233333 0 2.283333-.4333333 3.15-1.3.866667-.8666667 1.3-1.9166667 1.3-3.15 0-1.2-.433333-2.25-1.3-3.15-.866667-.8666667-1.916667-1.3-3.15-1.3H384.9m-34.6-48.75c-1.2333333 0-2.3.41666667-3.2 1.25-3.3666667 3.36666667-5.4333333 7.36666667-6.2 12h-54.05c-.7666667-4.7-2.8333333-8.7-6.2-12-.8333333-.83333333-1.8666667-1.25-3.1-1.25-1.2333333 0-2.2833333.41666667-3.15 1.25-.8666667.86666667-1.3 1.9-1.3 3.1 0 1.23333333.4333333 2.3 1.3 3.2 1.8 1.8 2.9666667 3.9333333 3.5 6.4-3.7666667 1.1-6.8166667 3.2-9.15 6.3-2.4 3.1666667-3.6 6.7666667-3.6 10.8v4.4c-1.43333333.5-2.65 1.2166667-3.65 2.15-.83333333.6666667-1.13333333 1.5-.9 2.5.5 3.0666667 2 5.6 4.5 7.6v12.8c-2 1.1333333-3.58333333 2.6833333-4.75 4.65-.46666667.8666667-.46666667 1.75 0 2.65 1.16666667 1.9333333 2.75 3.4833333 4.75 4.65v12.8c-2.5 2-4 4.5333333-4.5 7.6-.16666667 1.1.13333333 1.9333333.9 2.5 1.3 1.0666667 2.7 1.8333333 4.2 2.3 1.03333333 3.866667 3.11666667 7.016667 6.25 9.45 3.2333333 2.5 6.8833333 3.75 10.95 3.75h62.05c4.0666667 0 7.7-1.233333 10.9-3.7 3.1-2.433333 5.183333-5.55 6.25-9.35 1.6-.5 3-1.2833333 4.2-2.35.366667-.3.633333-.6833333.8-1.15.166667-.4333333.2-.8833333.1-1.35-.533333-3.0333333-2.05-5.5833333-4.55-7.65v-12.75c2.1-1.3333333 3.683333-2.8833333 4.75-4.65.533333-.9.533333-1.8 0-2.7-1.066667-1.7666667-2.633333-3.3166667-4.7-4.65v-12.8c2.5-2.1666667 4-4.7 4.5-7.6.2-1.0666667-.083333-1.9166667-.85-2.55-1.2-.9666667-2.416667-1.6833333-3.65-2.15v-4.4c0-4.0333333-1.2-7.6333333-3.6-10.8-2.4-3.1-5.4833333-5.2-9.25-6.3.5333333-2.4333333 1.7166667-4.56666667 3.55-6.4.8666667-.83333333 1.3-1.86666667 1.3-3.1s-.4333333-2.3-1.3-3.2c-.8333333-.83333333-1.8666667-1.25-3.1-1.25m-5.35 48.75c2.4666667 0 4.55.8833333 6.25 2.65 1.7333333 1.7666667 2.5666667 3.8666667 2.5 6.3v35.5c0 2.4333333-.8666667 4.5166667-2.6 6.25-1.7333333 1.733333-3.8333333 2.6-6.3 2.6l-18.85-.05c-1.0333333-.166667-2.0333333-.5-3-1-1.4333333-.733333-2.5166667-1.7333333-3.25-3-.9333333-1.5333333-1.6833333-3.7333333-2.25-6.6l-1-5.8c-.1666667-.5-.4833333-.9833333-.95-1.45-.5333333-.4666667-1.0833333-.7-1.65-.7-.6 0-1.15.2333333-1.65.7s-.8166667.95-.95 1.45l-1 5.8c-.5666667 2.7333333-1.3166667 4.9-2.25 6.5-.7666667 1.3333333-1.8666667 2.35-3.3 3.05-.9333333.5-1.9166667.816667-2.95.95l-1.15.1h-17.7c-2.4666667 0-4.55-.866667-6.25-2.6-1.7666667-1.7333333-2.65-3.8333333-2.65-6.3v-35.45c0-2.4333333.8833333-4.5166667 2.65-6.25 1.7-1.7666667 3.7833333-2.65 6.25-2.65h62.05m-62.1-26.6c2.4333333 0 4.5166667.8666667 6.25 2.6s2.6 3.8166667 2.6 6.25c0 2.4666667-.8666667 4.5666667-2.6 6.3-1.7333333 1.7-3.8166667 2.55-6.25 2.55-2.4666667 0-4.5666667-.85-6.3-2.55-1.7333333-1.7333333-2.6-3.8333333-2.6-6.3 0-2.4333333.8666667-4.5166667 2.6-6.25s3.8333333-2.6 6.3-2.6m55.8 15.15c-1.7333333-1.7333333-2.6-3.8333333-2.6-6.3 0-2.4333333.8666667-4.5166667 2.6-6.25s3.8333333-2.6 6.3-2.6c2.4333333 0 4.5166667.8666667 6.25 2.6s2.6 3.8166667 2.6 6.25c0 2.4666667-.8666667 4.5666667-2.6 6.3-1.7333333 1.7-3.8166667 2.55-6.25 2.55-2.4666667 0-4.5666667-.85-6.3-2.55m-44.7 42.5c-1.8333333 0-3.4.65-4.7 1.95-1.3 1.3-1.95 2.8666667-1.95 4.7 0 1.8666667.65 3.45 1.95 4.75 1.3 1.2666667 2.8666667 1.9 4.7 1.9 1.8666667 0 3.45-.6333333 4.75-1.9 1.2666667-1.3 1.9-2.8833333 1.9-4.75 0-1.8333333-.6333333-3.4-1.9-4.7-1.3-1.3-2.8833333-1.95-4.75-1.95m-9.6-6.4c1 .9333333 2.1833333 1.4 3.55 1.4 1.3666667 0 2.55-.4666667 3.55-1.4 1-1 1.5-2.2 1.5-3.6 0-1.3666667-.4833333-2.5666667-1.45-3.6-1-.9666667-2.2-1.45-3.6-1.45-1.3666667 0-2.55.4833333-3.55 1.45-.9666667 1-1.45 2.2-1.45 3.6s.4833333 2.6 1.45 3.6m44.85 8.35c-1.3 1.3-1.95 2.8666667-1.95 4.7 0 1.8666667.65 3.45 1.95 4.75 1.2666667 1.2666667 2.8333333 1.9 4.7 1.9 1.8333333 0 3.4-.6333333 4.7-1.9 1.3-1.3 1.95-2.8833333 1.95-4.75 0-1.8333333-.65-3.4-1.95-4.7-1.3-1.3-2.8666667-1.95-4.7-1.95-1.8666667 0-3.4333333.65-4.7 1.95m-25.15-18.1c.6666667-.7 1-1.5333333 1-2.5s-.3333333-1.7833333-1-2.45c-.7-.6666667-1.5166667-1-2.45-1-.9666667 0-1.7833333.3333333-2.45 1-.7.6666667-1.05 1.4833333-1.05 2.45 0 .9666667.35 1.8 1.05 2.5.6666667.6666667 1.4833333 1 2.45 1 .9333333 0 1.75-.3333333 2.45-1m19.75-4.95c-.6666667.6666667-1 1.4833333-1 2.45 0 .9666667.3333333 1.8 1 2.5.6666667.6666667 1.4833333 1 2.45 1 .9333333 0 1.75-.3333333 2.45-1 .6666667-.7 1-1.5333333 1-2.5s-.3333333-1.7833333-1-2.45c-.7-.6666667-1.5166667-1-2.45-1-.9666667 0-1.7833333.3333333-2.45 1m21.15 11.05c0-1.3666667-.4833333-2.55-1.45-3.55-1-.9666667-2.2-1.45-3.6-1.45-1.3666667 0-2.5333333.4833333-3.5 1.45-1 1-1.5 2.1833333-1.5 3.55 0 1.4.4833333 2.5833333 1.45 3.55.9666667 1 2.15 1.5 3.55 1.5s2.5833333-.4833333 3.55-1.45c1-1 1.5-2.2 1.5-3.6m209.75-19.5c-.833333-.9-1.866667-1.3833333-3.1-1.45-1.2-.0333333-2.266667.35-3.2 1.15-.9.8333333-1.383333 1.85-1.45 3.05-.033333 1.2333333.35 2.3166667 1.15 3.25l9.4 10.35-9.4 10.35c-.8.9333333-1.166667 2-1.1 3.2.033333 1.2.5 2.2333333 1.4 3.1.866667.8 1.85 1.2 2.95 1.2 1.333333 0 2.416667-.5 3.25-1.5l8.8-9.7 8.75 9.7c.933333 1 2.016667 1.5 3.25 1.5 1.2 0 2.183333-.4 2.95-1.2.933333-.8 1.416667-1.8166667 1.45-3.05.066667-1.2333333-.316667-2.3166667-1.15-3.25l-9.35-10.35 9.35-10.35c.933333-.9 1.383333-1.9666667 1.35-3.2-.066667-1.2333333-.566667-2.25-1.5-3.05l.05-.05c-.933333-.8-2-1.1666667-3.2-1.1-1.2.0333333-2.233333.5-3.1 1.4l-8.75 9.7-8.8-9.7m-67.8-1.5c-1.2 0-2.25.4333333-3.15 1.3-.866667.9-1.3 1.95-1.3 3.15v26.6c0 1.2333333.433333 2.2833333 1.3 3.15.866667.8666667 1.916667 1.3 3.15 1.3h10.6c3.066667 0 5.683333-1.0666667 7.85-3.2 2.166667-2.1666667 3.25-4.8 3.25-7.9 0-2.4666667-.75-4.6833333-2.25-6.65 1.5-1.9333333 2.25-4.15 2.25-6.65 0-3.0333333-1.083333-5.6333333-3.25-7.8-2.166667-2.2-4.783333-3.3-7.85-3.3h-10.6m12.2 12.7c-.433333.4333333-.966667.65-1.6.65h-6.15v-4.45h6.15c.633333 0 1.166667.2166667 1.6.65.4.4333333.6.95.6 1.55 0 .6333333-.2 1.1666667-.6 1.6M491.35 220v-4.45h6.15c.633333 0 1.166667.2166667 1.6.65.4.4333333.6.95.6 1.55 0 .6333333-.2 1.1666667-.6 1.6-.433333.4333333-.966667.65-1.6.65h-6.15m-20.9-25.35c-.866667.9-1.3 1.95-1.3 3.15v14.4l-14.4-17.35c-.666667-.7333333-1.5-1.2-2.5-1.4-1-.1666667-1.95-.05-2.85.35-.733333.3666667-1.3.9-1.7 1.6-.466667.7-.7 1.45-.7 2.25v26.75c0 1.2333333.416667 2.2833333 1.25 3.15.866667.8666667 1.916667 1.3 3.15 1.3s2.266667-.4333333 3.1-1.3c.9-.8666667 1.35-1.9166667 1.35-3.15v-14.3l14.3 17.2c.533333.6666667 1.266667 1.1166667 2.2 1.35.866667.2666667 1.716667.25 2.55-.05.833333-.2666667 1.55-.7833333 2.15-1.55.566667-.7666667.85-1.6.85-2.5.1-.0333333.15-8.95.15-26.75 0-1.2-.45-2.25-1.35-3.15-.866667-.8666667-1.9-1.3-3.1-1.3-1.2 0-2.25.4333333-3.15 1.3z" fill="#999"/>
    <path d="M440.7 184l.15.2c.066667.1333333.266667.3166667.6.55l.9.65c.466667.2666667.933333.4666667 1.4.6.566667.1666667 1.183333.25 1.85.25 1.6 0 2.816667-.3666667 3.65-1.1.866667-.8333333 1.3-1.7833333 1.3-2.85 0-.7333333-.2-1.3666667-.6-1.9-.366667-.5-.833333-.8666667-1.4-1.1-.666667-.3-1.233333-.5166667-1.7-.65-.666667-.2333333-1.116667-.4166667-1.35-.55-.4-.2666667-.6-.55-.6-.85 0-.2333333.133333-.45.4-.65s.633333-.3 1.1-.3c.233333 0 .6.1 1.1.3.4.2.616667.35.65.45.033333.1.1.2.2.3h.05l1.9-2-.45-.45c-.4-.4333333-.883333-.75-1.45-.95-.733333-.3-1.533333-.45-2.4-.45-1.233333 0-2.366667.4-3.4 1.2-.933333.7-1.4 1.5833333-1.4 2.65 0 .7333333.2 1.3666667.6 1.9.366667.5333333.833333.9 1.4 1.1.9.3666667 1.466667.5666667 1.7.6.8.3 1.266667.5 1.4.6.3.2.483333.4666667.55.8.033333.3333333-.1.6166667-.4.85-.3.1666667-.716667.25-1.25.25-.5 0-.966667-.1166667-1.4-.35-.466667-.2333333-.766667-.4333333-.9-.6l-.3-.35-1.9 1.85m-7.1-10.65c-.6 0-1.233333.1666667-1.9.5-.766667.4666667-1.166667.75-1.2.85-.166667.1333333-.283333.2666667-.35.4v-1.45h-3.4V186h3.4v-6.4c0-.9333333.216667-1.65.65-2.15.4-.5 1.016667-.75 1.85-.75.666667 0 1.233333.2166667 1.7.65.433333.5.65 1.1166667.65 1.85v6.8h3.4v-7.25c0-1.6666667-.45-2.9666667-1.35-3.9-.9-1-2.05-1.5-3.45-1.5m-15.95.05c-1.733333 0-3.266667.6166667-4.6 1.85-1.266667 1.3333333-1.9 2.85-1.9 4.55 0 1.7666667.633333 3.2666667 1.9 4.5 1.366667 1.2666667 2.9 1.9 4.6 1.9 1.633333 0 3.15-.6333333 4.55-1.9 1.3-1.2333333 1.95-2.7333333 1.95-4.5s-.65-3.2833333-1.95-4.55c-1.4-1.2333333-2.916667-1.85-4.55-1.85m-.05 3.2c.733333 0 1.45.3166667 2.15.95.6.6.9 1.3666667.9 2.3 0 .9333333-.3 1.7-.9 2.3-.566667.6333333-1.283333.95-2.15.95-.8 0-1.516667-.3166667-2.15-.95-.6-.6-.9-1.3666667-.9-2.3 0-.8.3-1.5666667.9-2.3.566667-.6333333 1.283333-.95 2.15-.95m-16.55-2.6l-1.35 1.1v-1.45h-3.4v17.6h3.4v-6.8l.4.45c.366667.3333333.8.6166667 1.3.85.666667.3 1.333333.45 2 .45 1.6 0 2.983333-.6166667 4.15-1.85 1.166667-1.2666667 1.75-2.7833333 1.75-4.55 0-1.8666667-.583333-3.3833333-1.75-4.55-1.166667-1.2333333-2.55-1.85-4.15-1.85-.533333 0-.983333.0666667-1.35.2-.266667.0666667-.6.2-1 .4m-.4 8.3c-.566667-.6666667-.85-1.4833333-.85-2.45 0-.9666667.283333-1.7833333.85-2.45.566667-.6333333 1.283333-.95 2.15-.95.866667 0 1.583333.3166667 2.15.95.6.6666667.9 1.4833333.9 2.45 0 .9666667-.3 1.7833333-.9 2.45-.566667.6666667-1.283333 1-2.15 1-.866667 0-1.583333-.3333333-2.15-1m-20.45 1.05l.3.3c.2.2666667.466667.5166667.8.75l1.35.8c.2.1333333.833333.3833333 1.9.75.666667.2 1.45.3 2.35.3 2.066667 0 3.7-.5166667 4.9-1.55 1.166667-1.0333333 1.75-2.3666667 1.75-4 0-1.1666667-.283333-2.1333333-.85-2.9-.633333-.8-1.35-1.3333333-2.15-1.6-.733333-.3333333-1.6-.6333333-2.6-.9-.833333-.2333333-1.533333-.5333333-2.1-.9-.6-.3666667-.9-.8333333-.9-1.4 0-.5333333.233333-.9666667.7-1.3.333333-.3666667.9-.55 1.7-.55.566667 0 1.133333.15 1.7.45.066667.0666667.6.4333333 1.6 1.1l2.3-2.35-.25-.2c-.033333-.1-.25-.3-.65-.6-.3-.2333333-.666667-.45-1.1-.65-.4-.2666667-.95-.4666667-1.65-.6-.666667-.1666667-1.35-.25-2.05-.25-1.833333 0-3.316667.5-4.45 1.5-1.133333.9666667-1.7 2.1666667-1.7 3.6 0 1.2.3 2.1666667.9 2.9.533333.7 1.25 1.2333333 2.15 1.6.6.3 1.466667.6 2.6.9.8.2 1.5.4833333 2.1.85.566667.3333333.833333.8166667.8 1.45 0 .6-.3 1.0666667-.9 1.4-.566667.4333333-1.283333.65-2.15.65-.9 0-1.65-.1666667-2.25-.5l-1.85-1.35c0 .0666667-.766667.8333333-2.3 2.3M539 173.7h-3.5l-2.9 8.2-2.85-8.2h-3.55l4.85 12.15-.4.85c-.433333.9333333-1.15 1.4-2.15 1.4-.4 0-.816667-.0833333-1.25-.25v3l.2.1c.266667.1.55.1666667.85.2l1.1.1c2.1 0 3.7-1.5166667 4.8-4.55l4.8-13m-23.3-5.25h-3.4V186h3.4v-1.5l.3.45c.3.3.733333.6 1.3.9.666667.3 1.333333.45 2 .45 1.6 0 2.983333-.6166667 4.15-1.85 1.166667-1.2666667 1.75-2.8 1.75-4.6 0-1.8-.583333-3.3333333-1.75-4.6v.05c-1.1-1.2333333-2.45-1.85-4.05-1.85-.466667 0-.916667.0833333-1.35.25-.2.0333333-.55.1666667-1.05.4-.266667.1666667-.5.35-.7.55l-.6.6v-6.8m3.05 8c.866667 0 1.583333.3166667 2.15.95.6.6666667.9 1.4833333.9 2.45 0 .9-.3 1.7166667-.9 2.45-.6.6666667-1.316667 1-2.15 1-.866667 0-1.583333-.3333333-2.15-1-.566667-.6333333-.85-1.45-.85-2.45 0-.9666667.283333-1.7833333.85-2.45.566667-.6333333 1.283333-.95 2.15-.95m-18.9-1.7c-.266667-.3-.7-.6-1.3-.9-.6-.3-1.266667-.45-2-.45-1.6 0-2.983333.6166667-4.15 1.85-1.166667 1.2666667-1.75 2.8-1.75 4.6 0 1.8.583333 3.3333333 1.75 4.6 1.166667 1.2333333 2.55 1.85 4.15 1.85.6 0 1.033333-.05 1.3-.15.3-.1.65-.25 1.05-.45.266667-.1.516667-.2666667.75-.5l.45-.45c.099219-.1322917.149219-.215625.15-.25v1.5h3.4v-17.6h-3.4v6.8l-.4-.45m-4.8 2.65c.566667-.6333333 1.283333-.95 2.15-.95.866667 0 1.583333.3166667 2.15.95.6.6666667.9 1.4833333.9 2.45 0 .9666667-.3 1.7833333-.9 2.45-.633333.6333333-1.35.95-2.15.95-.866667 0-1.583333-.3166667-2.15-.95-.566667-.6666667-.85-1.4833333-.85-2.45 0-.9666667.283333-1.7833333.85-2.45m-31.7 6.9c1.266667-1.2 1.9-2.7 1.9-4.5 0-1.8-.633333-3.3166667-1.9-4.55-1.366667-1.2333333-2.9-1.85-4.6-1.85-1.7 0-3.216667.6166667-4.55 1.85-1.3 1.3666667-1.95 2.8833333-1.95 4.55 0 1.7666667.65 3.2666667 1.95 4.5 1.333333 1.2666667 2.85 1.9 4.55 1.9 1.7 0 3.233333-.6333333 4.6-1.9m-4.5-7.7c.733333 0 1.45.3166667 2.15.95.566667.6.85 1.3666667.85 2.3 0 .9333333-.283333 1.7-.85 2.3-.566667.6333333-1.283333.95-2.15.95-.8 0-1.516667-.3166667-2.15-.95-.6-.6-.9-1.3666667-.9-2.3 0-.8666667.3-1.6333333.9-2.3.566667-.6333333 1.283333-.95 2.15-.95m22.1 6.05c-.466667-.4-.783333-.8833333-.95-1.45h8.85l.15-1.4c0-1.8-.583333-3.2666667-1.75-4.4-1.1-1.2-2.55-1.8-4.35-1.8-1.766667 0-3.266667.6166667-4.5 1.85-1.3 1.2666667-1.95 2.7666667-1.95 4.5 0 1.7666667.65 3.2666667 1.95 4.5 1.3 1.2333333 2.833333 1.85 4.6 1.85.6 0 1.216667-.0833333 1.85-.25.666667-.1333333 1.166667-.2833333 1.5-.45l1.05-.7c.233333-.1333333.45-.3.65-.5l.2-.25-1.75-2.25-.4.35c-.2.2-.583333.45-1.15.75-.566667.2333333-1.166667.35-1.8.35-.866667 0-1.6-.2333333-2.2-.7m-1.05-4.05c.166667-.6333333.516667-1.1833333 1.05-1.65h.05c.5-.4333333 1.116667-.65 1.85-.65.666667 0 1.283333.2166667 1.85.65.466667.4666667.766667 1.0166667.9 1.65h-5.7m-4.6-5.05h-.55c-.733333 0-1.366667.15-1.9.45-.6.2666667-1 .5-1.2.7-.233333.1-.383333.2333333-.45.4v-1.45h-3.4V186h3.4v-5.95c0-1 .266667-1.8.8-2.4.533333-.5666667 1.25-.85 2.15-.85.5 0 .866667.05 1.1.15l.05.05v-3.45z" fill="#CCC"/>
    <path d="M336.05 175.6c0 2.4666667.8666667 4.5666667 2.6 6.3 1.7333333 1.7 3.8333333 2.55 6.3 2.55 2.4333333 0 4.5166667-.85 6.25-2.55 1.7333333-1.7333333 2.6-3.8333333 2.6-6.3 0-2.4333333-.8666667-4.5166667-2.6-6.25s-3.8166667-2.6-6.25-2.6c-2.4666667 0-4.5666667.8666667-6.3 2.6s-2.6 3.8166667-2.6 6.25m-46.95-6.25c-1.7333333-1.7333333-3.8166667-2.6-6.25-2.6-2.4666667 0-4.5666667.8666667-6.3 2.6s-2.6 3.8166667-2.6 6.25c0 2.4666667.8666667 4.5666667 2.6 6.3 1.7333333 1.7 3.8333333 2.55 6.3 2.55 2.4333333 0 4.5166667-.85 6.25-2.55 1.7333333-1.7333333 2.6-3.8333333 2.6-6.3 0-2.4333333-.8666667-4.5166667-2.6-6.25z" fill="#FFF"/>
    <path d="M351.2 196c-1.7-1.7666667-3.7833333-2.65-6.25-2.65H282.9c-2.4666667 0-4.55.8833333-6.25 2.65-1.7666667 1.7333333-2.65 3.8166667-2.65 6.25v35.45c0 2.4666667.8833333 4.5666667 2.65 6.3 1.7 1.733333 3.7833333 2.6 6.25 2.6h17.7l1.15-.1c1.0333333-.133333 2.0166667-.45 2.95-.95 1.4333333-.7 2.5333333-1.7166667 3.3-3.05.9333333-1.6 1.6833333-3.7666667 2.25-6.5l1-5.8c.1333333-.5.45-.9833333.95-1.45.5-.4666667 1.05-.7 1.65-.7.5666667 0 1.1166667.2333333 1.65.7.4666667.4666667.7833333.95.95 1.45l1 5.8c.5666667 2.8666667 1.3166667 5.0666667 2.25 6.6.7333333 1.2666667 1.8166667 2.266667 3.25 3 .9666667.5 1.9666667.833333 3 1l18.85.05c2.4666667 0 4.5666667-.866667 6.3-2.6 1.7333333-1.7333333 2.6-3.8166667 2.6-6.25v-35.5c.0666667-2.4333333-.7666667-4.5333333-2.5-6.3m-7.7 14.8c.9666667 1 1.45 2.1833333 1.45 3.55 0 1.4-.5 2.6-1.5 3.6-.9666667.9666667-2.15 1.45-3.55 1.45s-2.5833333-.5-3.55-1.5c-.9666667-.9666667-1.45-2.15-1.45-3.55 0-1.3666667.5-2.55 1.5-3.55.9666667-.9666667 2.1333333-1.45 3.5-1.45 1.4 0 2.6.4833333 3.6 1.45m-20.7-5.05c0-.9666667.3333333-1.7833333 1-2.45.6666667-.6666667 1.4833333-1 2.45-1 .9333333 0 1.75.3333333 2.45 1 .6666667.6666667 1 1.4833333 1 2.45 0 .9666667-.3333333 1.8-1 2.5-.7.6666667-1.5166667 1-2.45 1-.9666667 0-1.7833333-.3333333-2.45-1-.6666667-.7-1-1.5333333-1-2.5m-17.75 0c0 .9666667-.3333333 1.8-1 2.5-.7.6666667-1.5166667 1-2.45 1-.9666667 0-1.7833333-.3333333-2.45-1-.7-.7-1.05-1.5333333-1.05-2.5s.35-1.7833333 1.05-2.45c.6666667-.6666667 1.4833333-1 2.45-1 .9333333 0 1.75.3333333 2.45 1 .6666667.6666667 1 1.4833333 1 2.45m22.2 25.3c0-1.8333333.65-3.4 1.95-4.7 1.2666667-1.3 2.8333333-1.95 4.7-1.95 1.8333333 0 3.4.65 4.7 1.95 1.3 1.3 1.95 2.8666667 1.95 4.7 0 1.8666667-.65 3.45-1.95 4.75-1.3 1.2666667-2.8666667 1.9-4.7 1.9-1.8666667 0-3.4333333-.6333333-4.7-1.9-1.3-1.3-1.95-2.8833333-1.95-4.75M287.9 219.4c-1.3666667 0-2.55-.4666667-3.55-1.4-.9666667-1-1.45-2.2-1.45-3.6s.4833333-2.6 1.45-3.6c1-.9666667 2.1833333-1.45 3.55-1.45 1.4 0 2.6.4833333 3.6 1.45.9666667 1.0333333 1.45 2.2333333 1.45 3.6 0 1.4-.5 2.6-1.5 3.6-1 .9333333-2.1833333 1.4-3.55 1.4m1.35 6.95c1.3-1.3 2.8666667-1.95 4.7-1.95 1.8666667 0 3.45.65 4.75 1.95 1.2666667 1.3 1.9 2.8666667 1.9 4.7 0 1.8666667-.6333333 3.45-1.9 4.75-1.3 1.2666667-2.8833333 1.9-4.75 1.9-1.8333333 0-3.4-.6333333-4.7-1.9-1.3-1.3-1.95-2.8833333-1.95-4.75 0-1.8333333.65-3.4 1.95-4.7z" fill="#EFEFEF"/>
  </g>
</svg>
